<svg xmlns="http://www.w3.org/2000/svg" viewBox="0 0 323.97 141.68"><defs><style>.cls-1{fill:#f77b00;}.cls-2{fill:#222d60;}</style></defs><g id="Layer_2" data-name="Layer 2"><g id="Layer_1-2" data-name="Layer 1"><path class="cls-1" d="M181.71,50.41c2.35-8.95,11.17-11.09,16.23-18.43,6.09-8.84,7-19.8,5.06-30.13-6.29,2.33-12.1,7.08-16.28,12.21s-7.23,10.93-8,17.39C177.23,43.44,182,49.18,181.71,50.41Z"/><path class="cls-2" d="M245.49,79.85A36.24,36.24,0,0,0,209.3,43.66l-.67,0-.92,0a35.89,35.89,0,0,0-12.18,2.13C178.3,53.87,185,70,187.84,74.74c.27.4.54.81.79,1.17,1.08-5.24,8.48-11.66,8.38-11.26.3-.21.62-.42,1-.63a19.29,19.29,0,0,1,11.4-3.72,19.52,19.52,0,0,1-.06,39,19.28,19.28,0,0,1-9.76-2.65c-8.38-5-10.77-9.6-15.12-17.92-1.94-3.73-4.36-8.38-7.86-14-5.83-9.81-15.05-21.07-34.85-21.07a36.19,36.19,0,1,0,0,72.37,44.76,44.76,0,0,0,9.34-.92c18.84-6.81,16-20.85,13.35-26.93l-.48-.89L163,85.64a1.25,1.25,0,0,0-.09-.12l-1.13,1.66a30.27,30.27,0,0,1-10.34,9.5,19.49,19.49,0,1,1,0-33.66c8.38,5,10.77,9.61,15.11,17.92,1.95,3.73,4.37,8.37,7.87,14C180.27,104.78,189.5,116,209.3,116h0A36.22,36.22,0,0,0,245.49,79.85Z"/><path class="cls-2" d="M98.74,45.31H93.67c-9.43,0-10.9,3.4-10.9,6.35a29.46,29.46,0,0,0-9.2-6.33A36.19,36.19,0,1,0,82,110.25v-.07s0,0,0,.06c-.18,3.87-.72,6.68-1.63,8.47a12.52,12.52,0,0,1-5.79,5.39q-4.1,2.09-10.84,2.08a26.36,26.36,0,0,1-9.13-1.43,15.34,15.34,0,0,1-6.31-4.27H29.89A29.29,29.29,0,0,0,36.69,132,29.61,29.61,0,0,0,48,139.23a48,48,0,0,0,16.48,2.45q18.39,0,27.51-10.78,6.81-8,6.8-24.87V62.14h0Zm-36.21,54A19.49,19.49,0,1,1,82,79.79,19.51,19.51,0,0,1,62.53,99.27Z"/><path class="cls-2" d="M323.82,22.16c-12.52,0-15.92,1.92-16.59,11.72v15.5a36.17,36.17,0,1,0-8.43,64.92A29.54,29.54,0,0,0,308,108c0,2.94,1.46,6.35,10.9,6.35H324V22.16ZM287.74,99.33a19.49,19.49,0,1,1,19.48-19.48A19.5,19.5,0,0,1,287.74,99.33Z"/><path class="cls-2" d="M11.34,5.08c3.37,0,3.37-4.23,3.37-4.23A15.36,15.36,0,0,0,10.05.18a7.62,7.62,0,0,0-5.66,2c-1.33,1.33-2,3.42-2,6.18v1.86H0V15H2.35V35.18s5.75.38,5.75-2.62V15h3.46V10.26H8V8.88C8,6.27,8.38,5.08,11.34,5.08Z"/><path class="cls-2" d="M114.73,35s5.75.38,5.75-2.62V14.84h3.46V10.08h-3.55V8.7c0-2.61.38-3.8,3.33-3.8,3.37,0,3.37-4.23,3.37-4.23A15.36,15.36,0,0,0,122.43,0a7.63,7.63,0,0,0-5.66,2c-1.32,1.33-2,3.42-2,6.18V10h-2.35v4.8h2.35Z"/><path class="cls-2" d="M40.23,21.94v-.1a13,13,0,0,0-13.36-13A13.13,13.13,0,0,0,13.46,21.94V22A13,13,0,0,0,26.77,35,13.13,13.13,0,0,0,40.23,21.94Zm-21,0v-.1c0-4.37,2.95-8,7.56-8a7.76,7.76,0,0,1,7.71,8.09V22c0,4.33-2.95,7.94-7.61,7.94A7.74,7.74,0,0,1,19.21,21.94Z"/><path class="cls-2" d="M55.63,35A13.13,13.13,0,0,0,69.09,21.94v-.1a13,13,0,0,0-13.36-13A13.13,13.13,0,0,0,42.32,21.94V22A13,13,0,0,0,55.63,35ZM48.07,21.84c0-4.37,3-8,7.56-8a7.76,7.76,0,0,1,7.71,8.09V22c0,4.33-3,7.94-7.61,7.94a7.74,7.74,0,0,1-7.66-8Z"/><path class="cls-2" d="M126.18,22A13,13,0,0,0,139.5,35,13.13,13.13,0,0,0,153,21.94v-.1a13.39,13.39,0,0,0-26.78.1Zm5.76-.19c0-4.37,2.95-8,7.56-8s7.7,3.66,7.7,8.09V22c0,4.33-2.95,7.94-7.61,7.94a7.73,7.73,0,0,1-7.65-8Z"/><path class="cls-2" d="M161.9,28V24.16l0-1.2c0-3.46.31-5.77,1-6.95a3.17,3.17,0,0,1,2.43-1.78,5.8,5.8,0,0,1,1.24,0c.29.05.73.13.91.18.44,0,1.11-.59,1.62-1.1a6.72,6.72,0,0,0,.67-.82A24.61,24.61,0,0,0,171,10.31l-1.19-.5a1.45,1.45,0,0,0-.24-.1l0,0h0a6.92,6.92,0,0,0-7.64,1.47V9.44h-5.84V34.16C160.81,34.16,161.9,34.29,161.9,28Z"/><path class="cls-2" d="M93.1,2.63v9a13.52,13.52,0,0,0-8.38-2.8A13.13,13.13,0,0,0,71.31,21.94V22A13,13,0,0,0,84.62,35a13.68,13.68,0,0,0,8.52-2.88c.47,2.59,5.71,2.24,5.71,2.24V0S93.1-.37,93.1,2.63ZM92.33,22c0,4.33-3,7.94-7.61,7.94a7.73,7.73,0,0,1-7.65-8v-.1c0-4.37,2.94-8,7.55-8a7.76,7.76,0,0,1,7.71,8.09Z"/></g></g></svg>